<?xml version="1.0" encoding="UTF-8" standalone="no"?>
<svg
   viewBox="0 0 793.7007874015749 1122.5196850393702"
   width="793.7007874015749"
   height="1122.5196850393702"
   version="1.1"
   id="svg2161"
   sodipodi:docname="Crack palette.dxf"
   inkscape:version="1.2.1 (9c6d41e410, 2022-07-14)"
   xmlns:inkscape="http://www.inkscape.org/namespaces/inkscape"
   xmlns:sodipodi="http://sodipodi.sourceforge.net/DTD/sodipodi-0.dtd"
   xmlns="http://www.w3.org/2000/svg"
   xmlns:svg="http://www.w3.org/2000/svg">
  <sodipodi:namedview
     id="namedview2163"
     pagecolor="#ffffff"
     bordercolor="#000000"
     borderopacity="0.25"
     inkscape:showpageshadow="2"
     inkscape:pageopacity="0.0"
     inkscape:pagecheckerboard="0"
     inkscape:deskcolor="#d1d1d1"
     showgrid="false"
     inkscape:zoom="0.72515434"
     inkscape:cx="397.15683"
     inkscape:cy="341.30665"
     inkscape:window-width="1920"
     inkscape:window-height="1001"
     inkscape:window-x="-9"
     inkscape:window-y="-9"
     inkscape:window-maximized="1"
     inkscape:current-layer="g2159" />
  <desc
     id="desc135">Crack palette.dxf - scale = 1.000000, origin = (0.000000, 0.000000), method = manual</desc>
  <defs
     id="defs149">
    <marker
       id="DistanceX"
       orient="auto"
       refX="0.0"
       refY="0.0"
       style="overflow:visible">
      <path
         d="M 3,-3 L -3,3 M 0,-5 L  0,5"
         style="stroke:#000000; stroke-width:0.5"
         id="path137" />
    </marker>
    <pattern
       id="Hatch"
       patternUnits="userSpaceOnUse"
       width="8"
       height="8"
       x="0"
       y="0">
      <path
         d="M8 4 l-4,4"
         stroke="#000000"
         stroke-width="0.25"
         linecap="square"
         id="path140" />
      <path
         d="M6 2 l-4,4"
         stroke="#000000"
         stroke-width="0.25"
         linecap="square"
         id="path142" />
      <path
         d="M4 0 l-4,4"
         stroke="#000000"
         stroke-width="0.25"
         linecap="square"
         id="path144" />
    </pattern>
    <symbol
       id="*MODEL_SPACE" />
    <symbol
       id="*PAPER_SPACE" />
  </defs>
  <g
     inkscape:groupmode="layer"
     inkscape:label="0"
     id="g151" />
  <g
     inkscape:groupmode="layer"
     inkscape:label="Image"
     id="g2159">
    <path
       d="M 67.850604,342.045562 C 67.910702,346.694351 69.890264,349.844039 76.411911,355.666579"
       style="fill:none;stroke:#000000"
       id="path677" />
    <path
       d="M 76.411911,355.666579 C 82.602928,361.193805 90.515841,362.918105 97.125608,360.180246"
       style="fill:none;stroke:#000000"
       id="path679" />
    <path
       d="M 97.125608,360.180246 C 102.703272,357.869919 109.735419,349.137169 110.656471,343.377173"
       style="fill:none;stroke:#000000"
       id="path681" />
    <path
       d="M 16.548023,468.757157 L 16.878486,338.543494 L 42.342074,338.543494 L 67.805745,338.543494 L 67.850604,342.045562"
       style="fill:none;stroke:#000000"
       id="path683" />
    <path
       d="M 356.060353,343.377173 C 356.981412,349.137169 364.013552,357.869919 369.591209,360.180246"
       style="fill:none;stroke:#000000"
       id="path685" />
    <path
       d="M 369.591209,360.180246 C 371.841657,361.112417 375.961697,361.513364 379.357104,361.130665"
       style="fill:none;stroke:#000000"
       id="path687" />
    <path
       d="M 379.357104,361.130665 C 387.394462,360.224738 396.206120,351.718239 397.262037,343.845812"
       style="fill:none;stroke:#000000"
       id="path689" />
    <path
       d="M 110.656471,343.377173 L 111.429471,338.543494 L 233.358546,338.543494 L 355.287402,338.543494 L 356.060353,343.377173"
       style="fill:none;stroke:#000000"
       id="path691" />
    <path
       d="M 483.393808,371.223904 C 483.856309,389.198105 484.234726,531.840945 484.234726,688.207960"
       style="fill:none;stroke:#000000"
       id="path693" />
    <path
       d="M 397.262037,343.845812 L 397.973238,338.543494 L 440.263053,338.543494 L 482.552889,338.543494 L 483.393808,371.223904"
       style="fill:none;stroke:#000000"
       id="path695" />
    <path
       d="M 480.376789,975.757928 C 478.254920,977.543327 474.673240,979.339827 472.417512,979.750125"
       style="fill:none;stroke:#000000"
       id="path697" />
    <path
       d="M 472.417512,979.750125 C 467.408772,980.661026 301.332964,980.011427 300.399632,979.077128"
       style="fill:none;stroke:#000000"
       id="path699" />
    <path
       d="M 300.399632,979.077128 C 300.034152,978.711326 299.328472,971.092728 298.831434,962.147032"
       style="fill:none;stroke:#000000"
       id="path701" />
    <path
       d="M 298.831434,962.147032 C 298.055165,948.175336 297.595313,945.704137 295.570004,944.620237"
       style="fill:none;stroke:#000000"
       id="path703" />
    <path
       d="M 295.570004,944.620237 C 294.273256,943.926138 293.212267,942.605038 293.212267,941.684239"
       style="fill:none;stroke:#000000"
       id="path705" />
    <path
       d="M 293.212267,941.684239 C 293.212267,940.394139 291.003077,940.151841 283.581521,940.628141"
       style="fill:none;stroke:#000000"
       id="path707" />
    <path
       d="M 283.581521,940.628141 C 277.932280,940.990741 272.799122,940.677139 271.165062,939.869639"
       style="fill:none;stroke:#000000"
       id="path709" />
    <path
       d="M 271.165062,939.869639 C 264.066266,936.361841 256.245917,933.260141 254.500637,933.260141"
       style="fill:none;stroke:#000000"
       id="path711" />
    <path
       d="M 254.500637,933.260141 C 253.444460,933.260141 251.628510,931.254444 250.465221,928.802944"
       style="fill:none;stroke:#000000"
       id="path713" />
    <path
       d="M 250.465221,928.802944 C 249.301920,926.351444 247.864702,924.345747 247.271361,924.345747"
       style="fill:none;stroke:#000000"
       id="path715" />
    <path
       d="M 247.271361,924.345747 C 246.678051,924.345747 245.111501,923.185346 243.790205,921.767048"
       style="fill:none;stroke:#000000"
       id="path717" />
    <path
       d="M 243.790205,921.767048 C 240.634216,918.379548 220.747211,912.920451 211.488673,912.900151"
       style="fill:none;stroke:#000000"
       id="path719" />
    <path
       d="M 211.488673,912.900151 C 205.654235,912.887150 203.535708,912.271650 200.480247,909.700653"
       style="fill:none;stroke:#000000"
       id="path721" />
    <path
       d="M 200.480247,909.700653 C 197.808499,907.452552 195.182211,906.517051 191.543301,906.517051"
       style="fill:none;stroke:#000000"
       id="path723" />
    <path
       d="M 191.543301,906.517051 C 188.708973,906.517051 186.081815,906.018353 185.705133,905.408954"
       style="fill:none;stroke:#000000"
       id="path725" />
    <path
       d="M 185.705133,905.408954 C 185.328503,904.799452 181.426466,902.993552 177.033978,901.395855"
       style="fill:none;stroke:#000000"
       id="path727" />
    <path
       d="M 177.033978,901.395855 C 172.641509,899.798154 163.619203,896.218556 156.984435,893.441318"
       style="fill:none;stroke:#000000"
       id="path729" />
    <path
       d="M 156.984435,893.441318 C 150.349655,890.663868 139.531740,887.056959 132.944564,885.425900"
       style="fill:none;stroke:#000000"
       id="path731" />
    <path
       d="M 132.944564,885.425900 C 126.357415,883.794739 119.751477,881.357930 118.264656,880.010680"
       style="fill:none;stroke:#000000"
       id="path733" />
    <path
       d="M 118.264656,880.010680 C 116.777907,878.663354 113.965168,877.183291 112.014221,876.721621"
       style="fill:none;stroke:#000000"
       id="path735" />
    <path
       d="M 112.014221,876.721621 C 108.812942,875.964034 106.010271,871.978764 106.010271,868.184364"
       style="fill:none;stroke:#000000"
       id="path737" />
    <path
       d="M 106.010271,868.184364 C 106.010271,867.476886 108.845783,867.172157 112.643229,867.471636"
       style="fill:none;stroke:#000000"
       id="path739" />
    <path
       d="M 112.643229,867.471636 C 119.666158,868.025484 125.624935,866.611536 129.171746,863.549507"
       style="fill:none;stroke:#000000"
       id="path741" />
    <path
       d="M 129.171746,863.549507 C 130.714515,862.217669 132.774554,861.939859 136.473872,862.564887"
       style="fill:none;stroke:#000000"
       id="path743" />
    <path
       d="M 136.473872,862.564887 C 140.639562,863.268646 142.279230,862.922358 145.031169,860.757759"
       style="fill:none;stroke:#000000"
       id="path745" />
    <path
       d="M 145.031169,860.757759 C 147.102807,859.128129 149.377958,858.379170 150.843375,858.844218"
       style="fill:none;stroke:#000000"
       id="path747" />
    <path
       d="M 150.843375,858.844218 C 152.167737,859.264577 153.940165,859.052447 154.782096,858.373081"
       style="fill:none;stroke:#000000"
       id="path749" />
    <path
       d="M 154.782096,858.373081 C 156.185284,857.240489 164.113191,855.709731 170.321129,855.372748"
       style="fill:none;stroke:#000000"
       id="path751" />
    <path
       d="M 170.321129,855.372748 C 171.721958,855.296549 177.452648,857.290938 183.055975,859.804460"
       style="fill:none;stroke:#000000"
       id="path753" />
    <path
       d="M 183.055975,859.804460 C 198.251021,866.620505 206.635676,868.487407 225.443289,869.242205"
       style="fill:none;stroke:#000000"
       id="path755" />
    <path
       d="M 225.443289,869.242205 C 245.753711,870.057275 256.996698,868.477247 274.678303,862.322627"
       style="fill:none;stroke:#000000"
       id="path757" />
    <path
       d="M 274.678303,862.322627 C 290.507195,856.812941 292.935575,855.568630 304.036872,847.278694"
       style="fill:none;stroke:#000000"
       id="path759" />
    <path
       d="M 304.036872,847.278694 C 311.508189,841.699514 314.135649,840.477717 320.267906,839.731208"
       style="fill:none;stroke:#000000"
       id="path761" />
    <path
       d="M 320.267906,839.731208 C 326.406013,838.984025 328.149611,839.241354 331.092510,841.328923"
       style="fill:none;stroke:#000000"
       id="path763" />
    <path
       d="M 331.092510,841.328923 C 333.021880,842.697585 338.603180,845.628835 343.495378,847.842954"
       style="fill:none;stroke:#000000"
       id="path765" />
    <path
       d="M 343.495378,847.842954 C 348.387564,850.056994 352.857324,852.702981 353.428142,853.723060"
       style="fill:none;stroke:#000000"
       id="path767" />
    <path
       d="M 353.428142,853.723060 C 353.998983,854.743060 355.153875,855.579711 355.994581,855.582342"
       style="fill:none;stroke:#000000"
       id="path769" />
    <path
       d="M 355.994581,855.582342 C 356.835292,855.582342 359.433574,856.751909 361.768539,858.175419"
       style="fill:none;stroke:#000000"
       id="path771" />
    <path
       d="M 484.234726,688.207960 L 484.234726,972.511627 L 480.376789,975.757928"
       style="fill:none;stroke:#000000"
       id="path773" />
    <path
       d="M 361.522133,865.735608 C 353.810793,874.271093 354.116912,884.363399 362.322720,892.129277"
       style="fill:none;stroke:#000000"
       id="path775" />
    <path
       d="M 362.322720,892.129277 C 367.994778,897.497254 371.100578,898.876055 377.519554,898.876055"
       style="fill:none;stroke:#000000"
       id="path777" />
    <path
       d="M 377.519554,898.876055 C 387.253043,898.876055 397.637877,889.079777 397.637877,879.897933"
       style="fill:none;stroke:#000000"
       id="path779" />
    <path
       d="M 361.768539,858.175419 L 366.013901,860.763677 L 361.522133,865.735608"
       style="fill:none;stroke:#000000"
       id="path781" />
    <path
       d="M 404.323657,876.629703 C 408.000843,877.050062 414.299671,878.359132 418.321092,879.538942"
       style="fill:none;stroke:#000000"
       id="path783" />
    <path
       d="M 418.321092,879.538942 C 425.447599,881.629720 425.633008,881.798842 425.643628,886.221328"
       style="fill:none;stroke:#000000"
       id="path785" />
    <path
       d="M 425.643628,886.221328 C 425.652627,889.531196 426.601867,891.631468 429.156578,893.985335"
       style="fill:none;stroke:#000000"
       id="path787" />
    <path
       d="M 429.156578,893.985335 C 438.483012,902.578352 444.042191,903.514855 451.888210,897.814957"
       style="fill:none;stroke:#000000"
       id="path789" />
    <path
       d="M 451.888210,897.814957 C 460.757696,891.371437 460.630685,891.792809 461.125557,867.165298"
       style="fill:none;stroke:#000000"
       id="path791" />
    <path
       d="M 461.125557,867.165298 C 461.643674,841.381406 460.406967,833.408489 454.989959,827.609469"
       style="fill:none;stroke:#000000"
       id="path793" />
    <path
       d="M 454.989959,827.609469 C 452.005191,824.414370 450.383010,823.740503 445.675242,823.740503"
       style="fill:none;stroke:#000000"
       id="path795" />
    <path
       d="M 445.675242,823.740503 C 439.348762,823.740503 436.750783,821.709721 437.208556,817.122183"
       style="fill:none;stroke:#000000"
       id="path797" />
    <path
       d="M 437.208556,817.122183 C 437.716653,812.030317 431.749648,802.091289 428.184556,802.091289"
       style="fill:none;stroke:#000000"
       id="path799" />
    <path
       d="M 428.184556,802.091289 C 427.529416,802.091289 426.086657,800.337899 424.978428,798.194801"
       style="fill:none;stroke:#000000"
       id="path801" />
    <path
       d="M 424.978428,798.194801 C 423.870187,796.051703 421.070880,792.183492 418.757722,789.598794"
       style="fill:none;stroke:#000000"
       id="path803" />
    <path
       d="M 418.757722,789.598794 C 416.444583,787.014066 413.856714,782.759267 413.006903,780.143637"
       style="fill:none;stroke:#000000"
       id="path805" />
    <path
       d="M 413.006903,780.143637 C 412.157114,777.528038 410.070633,774.293688 408.370284,772.956208"
       style="fill:none;stroke:#000000"
       id="path807" />
    <path
       d="M 408.370284,772.956208 C 406.669965,771.618739 405.278774,769.637862 405.278774,768.554253"
       style="fill:none;stroke:#000000"
       id="path809" />
    <path
       d="M 405.278774,768.554253 C 405.278774,767.470681 404.783856,766.278221 404.178954,765.904380"
       style="fill:none;stroke:#000000"
       id="path811" />
    <path
       d="M 404.178954,765.904380 C 403.574045,765.530544 403.079127,762.983074 403.079127,760.243363"
       style="fill:none;stroke:#000000"
       id="path813" />
    <path
       d="M 403.079127,760.243363 C 403.079127,757.503696 402.141388,753.923297 400.995247,752.286947"
       style="fill:none;stroke:#000000"
       id="path815" />
    <path
       d="M 400.995247,752.286947 C 399.849109,750.650619 398.911359,748.121250 398.911359,746.666139"
       style="fill:none;stroke:#000000"
       id="path817" />
    <path
       d="M 398.911359,746.666139 C 398.911359,745.211021 398.244639,743.353780 397.429780,742.538910"
       style="fill:none;stroke:#000000"
       id="path819" />
    <path
       d="M 397.429780,742.538910 C 396.614918,741.724040 396.024178,739.036490 396.117041,736.566561"
       style="fill:none;stroke:#000000"
       id="path821" />
    <path
       d="M 396.117041,736.566561 C 396.235019,733.426843 395.441760,731.289385 393.480121,729.461866"
       style="fill:none;stroke:#000000"
       id="path823" />
    <path
       d="M 393.480121,729.461866 C 391.512370,727.628625 390.619332,725.212037 390.490031,721.370529"
       style="fill:none;stroke:#000000"
       id="path825" />
    <path
       d="M 390.490031,721.370529 C 390.290940,715.456301 387.026222,707.429813 383.306974,703.710546"
       style="fill:none;stroke:#000000"
       id="path827" />
    <path
       d="M 383.306974,703.710546 C 380.832325,701.235874 381.330263,698.939218 384.341454,698.939218"
       style="fill:none;stroke:#000000"
       id="path829" />
    <path
       d="M 384.341454,698.939218 C 385.867461,698.939218 386.176532,695.283167 386.176532,677.232113"
       style="fill:none;stroke:#000000"
       id="path831" />
    <path
       d="M 386.176532,677.232113 C 386.176532,655.883021 386.124934,655.473441 383.050692,652.399192"
       style="fill:none;stroke:#000000"
       id="path833" />
    <path
       d="M 383.050692,652.399192 C 378.807303,648.155785 369.938007,648.027662 365.156330,652.140763"
       style="fill:none;stroke:#000000"
       id="path835" />
    <path
       d="M 365.156330,652.140763 C 359.414570,657.079620 359.577623,663.132340 365.887189,679.270813"
       style="fill:none;stroke:#000000"
       id="path837" />
    <path
       d="M 365.887189,679.270813 C 369.030410,687.310530 372.811049,694.683489 374.821187,696.693857"
       style="fill:none;stroke:#000000"
       id="path839" />
    <path
       d="M 374.821187,696.693857 C 377.049014,698.921968 378.075746,701.059555 377.667647,702.620126"
       style="fill:none;stroke:#000000"
       id="path841" />
    <path
       d="M 377.667647,702.620126 C 377.225276,704.311812 377.847334,705.320825 379.694045,705.906924"
       style="fill:none;stroke:#000000"
       id="path843" />
    <path
       d="M 379.694045,705.906924 C 383.577003,707.139352 385.317993,711.177271 386.275192,721.170867"
       style="fill:none;stroke:#000000"
       id="path845" />
    <path
       d="M 386.275192,721.170867 C 386.741911,726.043877 387.770260,730.246375 388.560393,730.509755"
       style="fill:none;stroke:#000000"
       id="path847" />
    <path
       d="M 388.560393,730.509755 C 389.350511,730.773196 389.996980,732.060034 389.996980,733.369542"
       style="fill:none;stroke:#000000"
       id="path849" />
    <path
       d="M 389.996980,733.369542 C 389.996980,735.956141 392.579350,742.470251 394.026871,743.535069"
       style="fill:none;stroke:#000000"
       id="path851" />
    <path
       d="M 394.026871,743.535069 C 394.520780,743.898410 395.135210,745.617608 395.392260,747.355517"
       style="fill:none;stroke:#000000"
       id="path853" />
    <path
       d="M 395.392260,747.355517 C 395.649320,749.093420 396.832800,752.349358 398.022229,754.590947"
       style="fill:none;stroke:#000000"
       id="path855" />
    <path
       d="M 398.022229,754.590947 C 399.211676,756.832505 400.184848,759.850133 400.184848,761.296792"
       style="fill:none;stroke:#000000"
       id="path857" />
    <path
       d="M 400.184848,761.296792 C 400.184848,766.583123 403.328168,773.937698 406.133915,775.216059"
       style="fill:none;stroke:#000000"
       id="path859" />
    <path
       d="M 406.133915,775.216059 C 407.947903,776.042578 409.262786,778.108796 409.801232,780.978947"
       style="fill:none;stroke:#000000"
       id="path861" />
    <path
       d="M 409.801232,780.978947 C 410.262894,783.439835 411.927485,786.841875 413.500312,788.539003"
       style="fill:none;stroke:#000000"
       id="path863" />
    <path
       d="M 413.500312,788.539003 C 415.073144,790.236102 417.566143,793.576191 419.040310,795.961470"
       style="fill:none;stroke:#000000"
       id="path865" />
    <path
       d="M 419.040310,795.961470 C 420.514492,798.346741 424.085117,802.420989 426.975077,805.015340"
       style="fill:none;stroke:#000000"
       id="path867" />
    <path
       d="M 426.975077,805.015340 C 429.865017,807.609698 431.830356,809.732307 431.342506,809.732307"
       style="fill:none;stroke:#000000"
       id="path869" />
    <path
       d="M 431.342506,809.732307 C 430.854656,809.732307 431.290205,811.021735 432.310227,812.597707"
       style="fill:none;stroke:#000000"
       id="path871" />
    <path
       d="M 432.310227,812.597707 C 433.330314,814.173585 434.502134,817.586135 434.914265,820.181083"
       style="fill:none;stroke:#000000"
       id="path873" />
    <path
       d="M 434.914265,820.181083 C 435.518464,823.985382 435.226605,825.037882 433.407436,825.615262"
       style="fill:none;stroke:#000000"
       id="path875" />
    <path
       d="M 433.407436,825.615262 C 432.166556,826.009130 429.784498,827.786211 428.113977,829.564399"
       style="fill:none;stroke:#000000"
       id="path877" />
    <path
       d="M 428.113977,829.564399 C 425.206859,832.658929 425.055439,833.723970 424.580999,854.414381"
       style="fill:none;stroke:#000000"
       id="path879" />
    <path
       d="M 424.580999,854.414381 C 424.090689,875.797364 424.055928,876.022103 421.367849,875.184011"
       style="fill:none;stroke:#000000"
       id="path881" />
    <path
       d="M 421.367849,875.184011 C 419.873212,874.718113 417.519972,873.554464 416.138400,872.598214"
       style="fill:none;stroke:#000000"
       id="path883" />
    <path
       d="M 416.138400,872.598214 C 414.675371,871.585576 410.326182,870.859476 405.723114,870.859476"
       style="fill:none;stroke:#000000"
       id="path885" />
    <path
       d="M 405.723114,870.859476 C 397.818308,870.859476 396.275528,870.156903 392.253929,864.725768"
       style="fill:none;stroke:#000000"
       id="path887" />
    <path
       d="M 392.253929,864.725768 C 389.319863,860.763179 383.373702,857.843690 377.406025,857.435441"
       style="fill:none;stroke:#000000"
       id="path889" />
    <path
       d="M 377.406025,857.435441 C 371.629296,857.040299 362.773319,852.980202 354.969502,847.149184"
       style="fill:none;stroke:#000000"
       id="path891" />
    <path
       d="M 354.969502,847.149184 C 352.864573,845.576353 347.133906,842.482163 342.234660,840.273207"
       style="fill:none;stroke:#000000"
       id="path893" />
    <path
       d="M 342.234660,840.273207 C 334.498749,836.785228 332.208461,836.317977 324.824024,836.720897"
       style="fill:none;stroke:#000000"
       id="path895" />
    <path
       d="M 397.637877,879.897933 L 397.637877,875.865592 L 404.323657,876.629703"
       style="fill:none;stroke:#000000"
       id="path897" />
    <path
       d="M 322.913805,830.780190 C 331.036891,822.888782 341.941557,808.480116 345.589587,800.817940"
       style="fill:none;stroke:#000000"
       id="path899" />
    <path
       d="M 345.589587,800.817940 C 349.847717,791.874444 355.147835,775.383069 356.881111,765.684253"
       style="fill:none;stroke:#000000"
       id="path901" />
    <path
       d="M 356.881111,765.684253 C 357.880392,760.092616 358.243903,750.089979 357.872534,738.403612"
       style="fill:none;stroke:#000000"
       id="path903" />
    <path
       d="M 357.872534,738.403612 C 357.373141,722.689107 356.761875,718.345950 353.752033,709.127184"
       style="fill:none;stroke:#000000"
       id="path905" />
    <path
       d="M 353.752033,709.127184 C 349.629585,696.500485 343.687869,684.346042 337.256610,675.383936"
       style="fill:none;stroke:#000000"
       id="path907" />
    <path
       d="M 337.256610,675.383936 C 334.745102,671.884006 332.690241,668.539257 332.690241,667.951117"
       style="fill:none;stroke:#000000"
       id="path909" />
    <path
       d="M 332.690241,667.951117 C 332.690241,667.362947 334.363192,664.495790 336.407921,661.579638"
       style="fill:none;stroke:#000000"
       id="path911" />
    <path
       d="M 336.407921,661.579638 C 338.814459,658.147449 340.434637,653.875211 341.001910,649.465852"
       style="fill:none;stroke:#000000"
       id="path913" />
    <path
       d="M 341.001910,649.465852 C 341.815759,643.139815 350.377984,623.554741 353.052325,621.901882"
       style="fill:none;stroke:#000000"
       id="path915" />
    <path
       d="M 353.052325,621.901882 C 353.679243,621.514454 356.476021,623.646323 359.267380,626.639373"
       style="fill:none;stroke:#000000"
       id="path917" />
    <path
       d="M 324.824024,836.720897 L 316.321058,837.184936 L 322.913805,830.780190"
       style="fill:none;stroke:#000000"
       id="path919" />
    <path
       d="M 375.577935,632.503449 C 385.666843,632.882460 387.264983,632.619360 391.240161,629.926159"
       style="fill:none;stroke:#000000"
       id="path921" />
    <path
       d="M 391.240161,629.926159 C 393.674940,628.276490 397.016757,624.934692 398.666408,622.499894"
       style="fill:none;stroke:#000000"
       id="path923" />
    <path
       d="M 398.666408,622.499894 C 401.359529,618.525063 401.622697,616.926334 401.243698,606.843670"
       style="fill:none;stroke:#000000"
       id="path925" />
    <path
       d="M 359.267380,626.639373 L 364.342609,632.081329 L 375.577935,632.503449"
       style="fill:none;stroke:#000000"
       id="path927" />
    <path
       d="M 377.524607,584.325698 C 367.853609,584.325698 365.555562,584.748986 361.967403,587.191045"
       style="fill:none;stroke:#000000"
       id="path929" />
    <path
       d="M 361.967403,587.191045 C 354.315224,592.399083 352.429225,596.194224 352.429225,606.384559"
       style="fill:none;stroke:#000000"
       id="path931" />
    <path
       d="M 352.429225,606.384559 C 352.429225,613.239647 351.881435,616.133197 350.239087,617.953516"
       style="fill:none;stroke:#000000"
       id="path933" />
    <path
       d="M 350.239087,617.953516 C 347.063437,621.473235 337.787588,639.698736 337.764688,642.463657"
       style="fill:none;stroke:#000000"
       id="path935" />
    <path
       d="M 337.764688,642.463657 C 337.747491,644.448525 337.552260,644.517645 336.510690,642.905938"
       style="fill:none;stroke:#000000"
       id="path937" />
    <path
       d="M 336.510690,642.905938 C 335.636220,641.552787 335.270532,643.180176 335.256699,648.486293"
       style="fill:none;stroke:#000000"
       id="path939" />
    <path
       d="M 335.256699,648.486293 C 335.242900,653.826202 334.476110,657.208350 332.586380,660.266018"
       style="fill:none;stroke:#000000"
       id="path941" />
    <path
       d="M 332.586380,660.266018 C 331.128423,662.625041 329.764932,664.555158 329.556412,664.555158"
       style="fill:none;stroke:#000000"
       id="path943" />
    <path
       d="M 329.556412,664.555158 C 329.347884,664.555158 325.438156,660.888911 320.868094,656.407971"
       style="fill:none;stroke:#000000"
       id="path945" />
    <path
       d="M 320.868094,656.407971 C 282.870229,619.150855 232.860877,609.113019 183.308837,628.797162"
       style="fill:none;stroke:#000000"
       id="path947" />
    <path
       d="M 183.308837,628.797162 C 170.992271,633.689828 164.738351,637.615098 152.290065,648.266064"
       style="fill:none;stroke:#000000"
       id="path949" />
    <path
       d="M 152.290065,648.266064 C 122.444387,673.802615 108.332141,700.597527 106.381020,735.433754"
       style="fill:none;stroke:#000000"
       id="path951" />
    <path
       d="M 401.243698,606.843670 L 400.821589,595.614312 L 394.846670,589.970026 L 388.871762,584.325698 L 377.524607,584.325698"
       style="fill:none;stroke:#000000"
       id="path953" />
    <path
       d="M 100.123223,749.198638 C 91.472357,750.495927 88.686788,747.679480 87.766757,736.704794"
       style="fill:none;stroke:#000000"
       id="path955" />
    <path
       d="M 87.766757,736.704794 C 87.364260,731.903974 86.155574,726.633906 85.080809,724.993557"
       style="fill:none;stroke:#000000"
       id="path957" />
    <path
       d="M 85.080809,724.993557 C 82.146006,720.514518 72.286209,714.220369 68.213065,714.225751"
       style="fill:none;stroke:#000000"
       id="path959" />
    <path
       d="M 68.213065,714.225751 C 63.425250,714.230751 56.883371,718.367089 53.900062,723.272727"
       style="fill:none;stroke:#000000"
       id="path961" />
    <path
       d="M 53.900062,723.272727 C 50.797655,728.374284 49.436190,741.908750 50.609061,755.989175"
       style="fill:none;stroke:#000000"
       id="path963" />
    <path
       d="M 50.609061,755.989175 C 51.446056,766.036603 51.862859,767.300863 55.556016,770.994040"
       style="fill:none;stroke:#000000"
       id="path965" />
    <path
       d="M 55.556016,770.994040 C 67.104695,782.542757 88.181529,772.127871 88.181529,754.872465"
       style="fill:none;stroke:#000000"
       id="path967" />
    <path
       d="M 106.381020,735.433754 L 105.656534,748.368877 L 100.123223,749.198638"
       style="fill:none;stroke:#000000"
       id="path969" />
    <path
       d="M 92.558804,752.946788 C 94.966345,753.952706 97.974962,754.535116 99.244585,754.241008"
       style="fill:none;stroke:#000000"
       id="path971" />
    <path
       d="M 99.244585,754.241008 C 103.181193,753.329106 105.511272,756.555167 107.131253,765.160324"
       style="fill:none;stroke:#000000"
       id="path973" />
    <path
       d="M 107.131253,765.160324 C 109.117251,775.709768 114.371728,791.983892 118.438439,800.181048"
       style="fill:none;stroke:#000000"
       id="path975" />
    <path
       d="M 118.438439,800.181048 C 125.449795,814.313926 146.833436,838.228388 160.613261,847.347432"
       style="fill:none;stroke:#000000"
       id="path977" />
    <path
       d="M 160.613261,847.347432 C 163.501153,849.258512 165.863940,851.261352 165.863940,851.798181"
       style="fill:none;stroke:#000000"
       id="path979" />
    <path
       d="M 165.863940,851.798181 C 165.863940,852.717453 162.561543,853.293052 147.438217,855.009872"
       style="fill:none;stroke:#000000"
       id="path981" />
    <path
       d="M 147.438217,855.009872 C 143.957991,855.404920 140.383608,856.331471 139.495151,857.068830"
       style="fill:none;stroke:#000000"
       id="path983" />
    <path
       d="M 139.495151,857.068830 C 138.606690,857.806190 136.988353,858.067408 135.898862,857.649339"
       style="fill:none;stroke:#000000"
       id="path985" />
    <path
       d="M 135.898862,857.649339 C 133.907664,856.885311 123.136365,861.264627 121.837387,863.366419"
       style="fill:none;stroke:#000000"
       id="path987" />
    <path
       d="M 121.837387,863.366419 C 120.688358,865.225527 111.428961,864.634859 109.364840,862.570726"
       style="fill:none;stroke:#000000"
       id="path989" />
    <path
       d="M 109.364840,862.570726 C 107.652170,860.858067 107.229611,860.954990 105.472331,863.463848"
       style="fill:none;stroke:#000000"
       id="path991" />
    <path
       d="M 88.181529,754.872465 L 88.181529,751.117807 L 92.558804,752.946788"
       style="fill:none;stroke:#000000"
       id="path993" />
    <path
       d="M 99.980084,862.919138 C 98.043609,861.071630 94.745923,858.912529 92.651917,858.121081"
       style="fill:none;stroke:#000000"
       id="path995" />
    <path
       d="M 92.651917,858.121081 C 81.463831,853.892360 65.258793,865.955607 65.258793,878.512762"
       style="fill:none;stroke:#000000"
       id="path997" />
    <path
       d="M 65.258793,878.512762 C 65.258793,884.250648 68.104634,888.861638 74.926103,894.176217"
       style="fill:none;stroke:#000000"
       id="path999" />
    <path
       d="M 74.926103,894.176217 C 84.640222,901.744452 94.603801,900.494253 103.274215,890.619088"
       style="fill:none;stroke:#000000"
       id="path1001" />
    <path
       d="M 103.274215,890.619088 C 105.479452,888.107520 107.283700,885.439268 107.283700,884.689629"
       style="fill:none;stroke:#000000"
       id="path1003" />
    <path
       d="M 107.283700,884.689629 C 107.283700,882.898670 115.174609,883.947020 122.497206,886.710758"
       style="fill:none;stroke:#000000"
       id="path1005" />
    <path
       d="M 122.497206,886.710758 C 125.611506,887.886168 132.488323,889.740450 137.778992,890.831297"
       style="fill:none;stroke:#000000"
       id="path1007" />
    <path
       d="M 137.778992,890.831297 C 143.069688,891.922148 151.826974,895.038055 157.239655,897.755656"
       style="fill:none;stroke:#000000"
       id="path1009" />
    <path
       d="M 157.239655,897.755656 C 162.652331,900.473155 167.866840,902.696553 168.827478,902.696553"
       style="fill:none;stroke:#000000"
       id="path1011" />
    <path
       d="M 168.827478,902.696553 C 169.788079,902.696553 174.353616,904.702254 178.973155,907.153750"
       style="fill:none;stroke:#000000"
       id="path1013" />
    <path
       d="M 178.973155,907.153750 C 183.592664,909.605151 189.177951,911.610951 191.384923,911.610951"
       style="fill:none;stroke:#000000"
       id="path1015" />
    <path
       d="M 191.384923,911.610951 C 193.591911,911.610951 197.202909,912.896349 199.409378,914.467548"
       style="fill:none;stroke:#000000"
       id="path1017" />
    <path
       d="M 199.409378,914.467548 C 202.483000,916.656147 205.358086,917.365848 211.704053,917.502350"
       style="fill:none;stroke:#000000"
       id="path1019" />
    <path
       d="M 211.704053,917.502350 C 216.259654,917.600349 223.643301,918.893749 228.112150,920.376446"
       style="fill:none;stroke:#000000"
       id="path1021" />
    <path
       d="M 228.112150,920.376446 C 232.580969,921.859147 236.878987,923.095646 237.663266,923.124045"
       style="fill:none;stroke:#000000"
       id="path1023" />
    <path
       d="M 237.663266,923.124045 C 239.708353,923.198045 247.319312,929.941742 250.041471,934.091441"
       style="fill:none;stroke:#000000"
       id="path1025" />
    <path
       d="M 250.041471,934.091441 C 253.575791,939.479142 269.323502,944.701637 282.069279,944.712839"
       style="fill:none;stroke:#000000"
       id="path1027" />
    <path
       d="M 105.472331,863.463848 L 103.501073,866.278197 L 99.980084,862.919138"
       style="fill:none;stroke:#000000"
       id="path1029" />
    <path
       d="M 291.938774,956.006434 C 291.938774,962.212433 292.312377,970.015831 292.768997,973.347228"
       style="fill:none;stroke:#000000"
       id="path1031" />
    <path
       d="M 282.069279,944.712839 L 291.938774,944.722840 L 291.938774,956.006434"
       style="fill:none;stroke:#000000"
       id="path1033" />
    <path
       d="M 237.250677,969.199030 C 222.808830,958.244734 218.024882,956.820435 198.789290,957.747534"
       style="fill:none;stroke:#000000"
       id="path1035" />
    <path
       d="M 198.789290,957.747534 C 183.632644,958.478132 178.939117,960.026933 163.397662,969.425730"
       style="fill:none;stroke:#000000"
       id="path1037" />
    <path
       d="M 292.768997,973.347228 L 293.599215,979.404227 L 271.438144,978.862628 L 249.277111,978.321128 L 237.250677,969.199030"
       style="fill:none;stroke:#000000"
       id="path1039" />
    <path
       d="M 120.573487,973.430128 C 119.351357,971.564927 117.418439,965.928831 116.278069,960.905533"
       style="fill:none;stroke:#000000"
       id="path1041" />
    <path
       d="M 116.278069,960.905533 C 114.489388,953.026836 113.615909,951.375636 109.919112,948.884338"
       style="fill:none;stroke:#000000"
       id="path1043" />
    <path
       d="M 109.919112,948.884338 C 105.151442,945.671339 99.101529,945.387137 47.430051,945.947940"
       style="fill:none;stroke:#000000"
       id="path1045" />
    <path
       d="M 47.430051,945.947940 C 32.281323,946.112239 21.231386,945.689938 19.095058,944.864837"
       style="fill:none;stroke:#000000"
       id="path1047" />
    <path
       d="M 163.397662,969.425730 L 152.653735,975.923229 L 137.724631,976.372328 L 122.795565,976.821328 L 120.573487,973.430128"
       style="fill:none;stroke:#000000"
       id="path1049" />
    <path
       d="M 15.905212,771.242271 C 16.076878,676.493703 16.366288,540.376044 16.548023,468.758547"
       style="fill:none;stroke:#000000"
       id="path1051" />
    <path
       d="M 19.095058,944.864837 L 15.592947,943.512438 L 15.905212,771.242271"
       style="fill:none;stroke:#000000"
       id="path1053" />
    <path
       d="M 51.114153,491.035310 C 52.280591,499.224616 55.832137,503.344286 63.359815,505.239757"
       style="fill:none;stroke:#000000"
       id="path1055" />
    <path
       d="M 63.359815,505.239757 C 74.282105,507.990036 85.405179,499.931845 88.112625,487.307410"
       style="fill:none;stroke:#000000"
       id="path1057" />
    <path
       d="M 88.112625,487.307410 C 88.900014,483.635951 90.240488,480.189585 91.091444,479.648833"
       style="fill:none;stroke:#000000"
       id="path1059" />
    <path
       d="M 91.091444,479.648833 C 91.942405,479.108084 95.647245,478.656873 99.324491,478.646124"
       style="fill:none;stroke:#000000"
       id="path1061" />
    <path
       d="M 16.548023,468.758547 L 16.548023,468.757157"
       style="fill:none;stroke:#000000"
       id="path1063" />
    <path
       d="M 106.010271,485.548513 C 106.010271,498.880777 112.632990,522.374298 120.181655,535.819786"
       style="fill:none;stroke:#000000"
       id="path1065" />
    <path
       d="M 120.181655,535.819786 C 130.777625,554.693288 152.833667,576.353798 172.859048,587.552636"
       style="fill:none;stroke:#000000"
       id="path1067" />
    <path
       d="M 172.859048,587.552636 C 191.736801,598.109650 213.338563,602.876262 237.483405,601.812461"
       style="fill:none;stroke:#000000"
       id="path1069" />
    <path
       d="M 237.483405,601.812461 C 276.286802,600.102731 303.892010,585.801955 332.125723,552.783247"
       style="fill:none;stroke:#000000"
       id="path1071" />
    <path
       d="M 332.125723,552.783247 C 341.277929,542.079942 347.566885,530.620286 352.204906,516.195243"
       style="fill:none;stroke:#000000"
       id="path1073" />
    <path
       d="M 352.204906,516.195243 C 357.507893,499.702027 358.491832,491.925218 357.869144,471.426546"
       style="fill:none;stroke:#000000"
       id="path1075" />
    <path
       d="M 357.869144,471.426546 C 357.376894,455.221912 356.792213,450.974733 353.776373,441.696499"
       style="fill:none;stroke:#000000"
       id="path1077" />
    <path
       d="M 353.776373,441.696499 C 344.787575,414.042308 325.905763,389.329655 300.310091,371.719374"
       style="fill:none;stroke:#000000"
       id="path1079" />
    <path
       d="M 300.310091,371.719374 C 291.397587,365.587385 274.921191,358.220156 262.648668,354.879477"
       style="fill:none;stroke:#000000"
       id="path1081" />
    <path
       d="M 262.648668,354.879477 C 247.859633,350.853781 217.437744,350.811689 202.755727,354.796777"
       style="fill:none;stroke:#000000"
       id="path1083" />
    <path
       d="M 202.755727,354.796777 C 176.645666,361.883486 161.983090,370.373144 142.906840,389.449417"
       style="fill:none;stroke:#000000"
       id="path1085" />
    <path
       d="M 142.906840,389.449417 C 128.911926,403.444301 119.901729,416.264236 114.806808,429.430802"
       style="fill:none;stroke:#000000"
       id="path1087" />
    <path
       d="M 114.806808,429.430802 C 110.470930,440.636088 106.053861,459.796380 106.026943,467.516190"
       style="fill:none;stroke:#000000"
       id="path1089" />
    <path
       d="M 106.026943,467.516190 C 106.008344,473.085978 103.885791,474.327757 94.554618,474.230275"
       style="fill:none;stroke:#000000"
       id="path1091" />
    <path
       d="M 99.324491,478.646124 L 106.010271,478.627623 L 106.010271,485.548513"
       style="fill:none;stroke:#000000"
       id="path1093" />
    <path
       d="M 87.805100,465.892649 C 86.588799,456.064581 84.986343,453.313092 77.465348,448.138477"
       style="fill:none;stroke:#000000"
       id="path1095" />
    <path
       d="M 77.465348,448.138477 C 69.217406,442.463777 62.448166,443.331866 55.304614,450.980394"
       style="fill:none;stroke:#000000"
       id="path1097" />
    <path
       d="M 55.304614,450.980394 C 50.699720,455.910811 48.756559,474.484796 51.114153,491.036130"
       style="fill:none;stroke:#000000"
       id="path1099" />
    <path
       d="M 94.554618,474.230275 L 88.829586,474.170275 L 87.805100,465.892649"
       style="fill:none;stroke:#000000"
       id="path1101" />
    <path
       d="M 69.442738,615.670866 C 70.293441,617.151375 73.746372,620.733044 77.115927,623.630185"
       style="fill:none;stroke:#000000"
       id="path1103" />
    <path
       d="M 77.115927,623.630185 C 82.329010,628.112270 84.094753,628.897621 88.958929,628.897621"
       style="fill:none;stroke:#000000"
       id="path1105" />
    <path
       d="M 88.958929,628.897621 C 95.918880,628.897621 100.554845,626.638821 105.758362,620.712272"
       style="fill:none;stroke:#000000"
       id="path1107" />
    <path
       d="M 105.758362,620.712272 C 113.381269,612.030278 112.336891,602.142391 102.875864,593.421532"
       style="fill:none;stroke:#000000"
       id="path1109" />
    <path
       d="M 102.875864,593.421532 C 96.600968,587.637494 90.494854,585.890177 84.125650,588.055956"
       style="fill:none;stroke:#000000"
       id="path1111" />
    <path
       d="M 84.125650,588.055956 C 79.141621,589.750704 72.105146,595.854043 69.600435,600.654939"
       style="fill:none;stroke:#000000"
       id="path1113" />
    <path
       d="M 69.600435,600.654939 C 67.428639,604.817560 67.352882,612.033899 69.442908,615.670866"
       style="fill:none;stroke:#000000"
       id="path1115" />
    <path
       d="M 51.114153,491.036130 L 51.114153,491.035310"
       style="fill:none;stroke:#000000"
       id="path1117" />
    <path
       d="M 367.676568,410.341259 C 374.081087,423.400985 380.156425,431.507769 383.538985,431.507769"
       style="fill:none;stroke:#000000"
       id="path1119" />
    <path
       d="M 383.538985,431.507769 C 385.296801,431.507769 385.760712,432.442972 385.592062,435.646590"
       style="fill:none;stroke:#000000"
       id="path1121" />
    <path
       d="M 385.592062,435.646590 C 385.472194,437.922951 384.992213,440.645019 384.525343,441.695649"
       style="fill:none;stroke:#000000"
       id="path1123" />
    <path
       d="M 384.525343,441.695649 C 384.058492,442.746266 383.396765,446.184665 383.054865,449.336553"
       style="fill:none;stroke:#000000"
       id="path1125" />
    <path
       d="M 383.054865,449.336553 C 381.955472,459.471001 380.332894,467.735429 378.929435,470.349007"
       style="fill:none;stroke:#000000"
       id="path1127" />
    <path
       d="M 378.929435,470.349007 C 375.890347,476.008505 375.162588,480.485382 376.848125,483.152353"
       style="fill:none;stroke:#000000"
       id="path1129" />
    <path
       d="M 376.848125,483.152353 C 378.060654,485.070852 378.169826,486.923100 377.257844,490.103010"
       style="fill:none;stroke:#000000"
       id="path1131" />
    <path
       d="M 377.257844,490.103010 C 375.862447,494.968460 376.957977,514.925601 378.819016,518.543112"
       style="fill:none;stroke:#000000"
       id="path1133" />
    <path
       d="M 378.819016,518.543112 C 379.722195,520.298751 379.377865,521.585117 377.455465,523.637057"
       style="fill:none;stroke:#000000"
       id="path1135" />
    <path
       d="M 377.455465,523.637057 C 373.372456,527.995226 362.960372,550.065849 362.301071,555.760055"
       style="fill:none;stroke:#000000"
       id="path1137" />
    <path
       d="M 362.301071,555.760055 C 361.763841,560.399924 362.139919,561.310927 365.898939,564.473885"
       style="fill:none;stroke:#000000"
       id="path1139" />
    <path
       d="M 365.898939,564.473885 C 369.902649,567.842793 370.613639,567.985943 381.276265,567.569911"
       style="fill:none;stroke:#000000"
       id="path1141" />
    <path
       d="M 381.276265,567.569911 C 397.086028,566.953032 397.001140,567.075454 397.001140,544.895652"
       style="fill:none;stroke:#000000"
       id="path1143" />
    <path
       d="M 397.001140,544.895652 C 397.001140,528.917495 396.742420,526.857846 394.327661,523.610309"
       style="fill:none;stroke:#000000"
       id="path1145" />
    <path
       d="M 394.327661,523.610309 C 392.388450,521.002318 390.357812,519.905110 386.934043,519.615360"
       style="fill:none;stroke:#000000"
       id="path1147" />
    <path
       d="M 386.934043,519.615360 C 384.337954,519.395690 381.993373,518.536029 381.723844,517.705130"
       style="fill:none;stroke:#000000"
       id="path1149" />
    <path
       d="M 381.723844,517.705130 C 381.094284,515.764350 379.752083,500.522328 379.880644,496.773766"
       style="fill:none;stroke:#000000"
       id="path1151" />
    <path
       d="M 379.880644,496.773766 C 380.049354,491.856420 380.029414,482.520952 379.846946,480.855254"
       style="fill:none;stroke:#000000"
       id="path1153" />
    <path
       d="M 379.846946,480.855254 C 379.475656,477.468446 380.784616,472.478627 382.798692,469.603128"
       style="fill:none;stroke:#000000"
       id="path1155" />
    <path
       d="M 382.798692,469.603128 C 383.956142,467.950617 384.903152,464.467650 384.903152,461.863151"
       style="fill:none;stroke:#000000"
       id="path1157" />
    <path
       d="M 384.903152,461.863151 C 384.903152,459.258660 385.522654,456.744873 386.279822,456.276922"
       style="fill:none;stroke:#000000"
       id="path1159" />
    <path
       d="M 386.279822,456.276922 C 387.036983,455.808971 387.329953,454.125044 386.930842,452.534895"
       style="fill:none;stroke:#000000"
       id="path1161" />
    <path
       d="M 386.930842,452.534895 C 386.462683,450.669566 387.142352,448.452314 388.846371,446.285987"
       style="fill:none;stroke:#000000"
       id="path1163" />
    <path
       d="M 388.846371,446.285987 C 390.980039,443.573446 391.318911,441.930149 390.609910,437.733619"
       style="fill:none;stroke:#000000"
       id="path1165" />
    <path
       d="M 390.609910,437.733619 C 389.824331,433.083810 390.138701,432.117562 393.607030,428.521304"
       style="fill:none;stroke:#000000"
       id="path1167" />
    <path
       d="M 393.607030,428.521304 C 398.588398,423.356164 400.184946,418.976126 400.184946,410.475069"
       style="fill:none;stroke:#000000"
       id="path1169" />
    <path
       d="M 400.184946,410.475069 C 400.184946,400.367452 397.766540,390.769107 394.362021,387.364577"
       style="fill:none;stroke:#000000"
       id="path1171" />
    <path
       d="M 394.362021,387.364577 C 391.688689,384.691249 390.233329,384.388868 380.038855,384.388868"
       style="fill:none;stroke:#000000"
       id="path1173" />
    <path
       d="M 380.038855,384.388868 C 360.237101,384.388868 357.631793,389.858324 367.676689,410.341259"
       style="fill:none;stroke:#000000"
       id="path1175" />
    <path
       d="M 362.771410,831.961100 C 364.244270,835.799346 370.343308,837.748857 380.878273,837.748857"
       style="fill:none;stroke:#000000"
       id="path1177" />
    <path
       d="M 380.878273,837.748857 C 388.935103,837.748857 391.598869,837.254426 393.994711,835.314399"
       style="fill:none;stroke:#000000"
       id="path1179" />
    <path
       d="M 393.994711,835.314399 C 396.895468,832.965437 397.001140,832.252709 397.001140,815.031984"
       style="fill:none;stroke:#000000"
       id="path1181" />
    <path
       d="M 397.001140,815.031984 C 397.001140,798.893401 396.745107,796.839851 394.327661,793.588721"
       style="fill:none;stroke:#000000"
       id="path1183" />
    <path
       d="M 394.327661,793.588721 C 390.752659,788.780844 384.258421,788.130285 379.240486,792.077431"
       style="fill:none;stroke:#000000"
       id="path1185" />
    <path
       d="M 379.240486,792.077431 C 377.078135,793.778332 372.885566,800.588118 368.813828,809.012976"
       style="fill:none;stroke:#000000"
       id="path1187" />
    <path
       d="M 368.813828,809.012976 C 362.311782,822.466394 361.016152,827.387021 362.771410,831.961100"
       style="fill:none;stroke:#000000"
       id="path1189" />
    <path
       d="M 417.850783,699.316955 C 426.154530,707.237382 429.201056,708.448671 438.557015,707.549662"
       style="fill:none;stroke:#000000"
       id="path1191" />
    <path
       d="M 438.557015,707.549662 C 444.229191,707.004654 445.738602,706.160194 451.878308,700.096755"
       style="fill:none;stroke:#000000"
       id="path1193" />
    <path
       d="M 450.097058,613.412776 C 442.362002,607.475769 441.755652,607.248408 433.656404,607.248408"
       style="fill:none;stroke:#000000"
       id="path1195" />
    <path
       d="M 451.878308,700.096755 L 458.802595,693.258459 L 458.465458,656.417790 L 458.128316,619.577114 L 450.097058,613.412776"
       style="fill:none;stroke:#000000"
       id="path1197" />
    <path
       d="M 433.656404,607.248408 L 425.246997,607.248408 L 417.809839,614.685524 L 410.372704,622.122682 L 410.372704,657.153392 L 410.372704,692.184068 L 417.850783,699.316955"
       style="fill:none;stroke:#000000"
       id="path1199" />
  </g>
</svg>
